<svg width="17" height="17" viewBox="0 0 17 17" fill="none" xmlns="http://www.w3.org/2000/svg">
<path opacity="0.2" d="M13.6875 8.96875C13.6875 10.0566 13.365 11.12 12.7606 12.0244C12.1562 12.9289 11.2972 13.6338 10.2922 14.0501C9.2873 14.4664 8.18143 14.5753 7.1145 14.3631C6.04761 14.1509 5.06761 13.627 4.29841 12.8578C3.52923 12.0886 3.0054 11.1086 2.79319 10.0417C2.58097 8.97488 2.68988 7.86902 3.10617 6.86399C3.52245 5.859 4.22739 5.00002 5.13187 4.39567C6.03633 3.79132 7.0997 3.46875 8.1875 3.46875C9.64617 3.46875 11.0452 4.04821 12.0766 5.07966C13.108 6.11111 13.6875 7.51006 13.6875 8.96875Z" fill="white" fill-opacity="0.85"/>
<path d="M8.68751 5.96865V8.68553L10.945 10.0399C11.0587 10.1082 11.1406 10.2189 11.1728 10.3475C11.2048 10.4763 11.1846 10.6125 11.1162 10.7261C11.048 10.8399 10.9373 10.9218 10.8086 10.9539C10.6799 10.986 10.5437 10.9657 10.43 10.8974L7.92998 9.3974C7.85605 9.35293 7.79478 9.29007 7.75231 9.21493C7.70978 9.1398 7.68751 9.05493 7.68751 8.96867V5.96865C7.68751 5.83604 7.74018 5.70886 7.83398 5.61509C7.92771 5.52133 8.05491 5.46865 8.18751 5.46865C8.32011 5.46865 8.44731 5.52133 8.54105 5.61509C8.63485 5.70886 8.68751 5.83604 8.68751 5.96865ZM14.1875 4.46865C14.0549 4.46865 13.9277 4.52133 13.834 4.61509C13.7402 4.70886 13.6875 4.83604 13.6875 4.96865V6.09365C13.2906 5.63365 12.8856 5.19052 12.43 4.72927C11.5962 3.89534 10.535 3.32562 9.37925 3.09131C8.22351 2.85699 7.02431 2.96847 5.9315 3.41181C4.83871 3.85516 3.90081 4.61071 3.23497 5.58405C2.56913 6.55739 2.20489 7.7054 2.18777 8.88453C2.17064 10.0637 2.50139 11.2218 3.13867 12.2141C3.77596 13.2063 4.69153 13.9888 5.77098 14.4637C6.85043 14.9386 8.04591 15.0849 9.20798 14.8842C10.3701 14.6835 11.4473 14.1449 12.305 13.3355C12.3528 13.2904 12.3912 13.2363 12.418 13.1763C12.4449 13.1163 12.4597 13.0516 12.4615 12.9859C12.4634 12.9202 12.4523 12.8548 12.4288 12.7934C12.4054 12.732 12.3702 12.6758 12.325 12.628C12.2798 12.5803 12.2258 12.5419 12.1658 12.515C12.1058 12.4881 12.0411 12.4733 11.9754 12.4715C11.9097 12.4697 11.8443 12.4807 11.7828 12.5041C11.7214 12.5276 11.6652 12.5629 11.6175 12.608C10.9025 13.2818 10.0049 13.7301 9.03671 13.8967C8.06851 14.0635 7.07265 13.9413 6.17352 13.5453C5.27437 13.1495 4.51177 12.4975 3.98095 11.6708C3.45014 10.8441 3.17463 9.87933 3.18883 8.897C3.20303 7.91467 3.50631 6.95826 4.06081 6.14725C4.61529 5.33625 5.39642 4.70657 6.30664 4.33684C7.21685 3.96711 8.21585 3.87373 9.17878 4.06835C10.1418 4.26297 11.026 4.73697 11.7212 5.43115C12.23 5.94615 12.6756 6.4424 13.125 6.96865H11.6875C11.5549 6.96865 11.4277 7.02133 11.334 7.11509C11.2402 7.20886 11.1875 7.33604 11.1875 7.46865C11.1875 7.60125 11.2402 7.7284 11.334 7.8222C11.4277 7.916 11.5549 7.96867 11.6875 7.96867H14.1875C14.3201 7.96867 14.4473 7.916 14.541 7.8222C14.6348 7.7284 14.6875 7.60125 14.6875 7.46865V4.96865C14.6875 4.83604 14.6348 4.70886 14.541 4.61509C14.4473 4.52133 14.3201 4.46865 14.1875 4.46865Z" fill="white" fill-opacity="0.85"/>
</svg>
