<svg width="17" height="17" viewBox="0 0 17 17" fill="none" xmlns="http://www.w3.org/2000/svg">
<path opacity="0.2" d="M14.1875 8.1875C14.1875 9.2753 13.865 10.3387 13.2606 11.2432C12.6562 12.1476 11.7972 12.8526 10.7922 13.2688C9.7873 13.6851 8.68143 13.794 7.6145 13.5818C6.54761 13.3696 5.56761 12.8458 4.79841 12.0766C4.02923 11.3074 3.5054 10.3274 3.29319 9.2605C3.08097 8.19363 3.18988 7.08777 3.60617 6.08274C4.02245 5.07775 4.72739 4.21877 5.63187 3.61442C6.53633 3.01007 7.5997 2.6875 8.6875 2.6875C10.1462 2.6875 11.5452 3.26696 12.5766 4.29841C13.608 5.32986 14.1875 6.72881 14.1875 8.1875Z" fill="#495060"/>
<path d="M9.18751 5.18746V7.90435L11.445 9.25868C11.5587 9.32701 11.6406 9.43768 11.6728 9.56635C11.7048 9.69508 11.6846 9.83128 11.6162 9.94495C11.548 10.0587 11.4373 10.1406 11.3086 10.1727C11.1799 10.2048 11.0437 10.1845 10.93 10.1162L8.42998 8.61621C8.35605 8.57174 8.29478 8.50888 8.25231 8.43375C8.20978 8.35861 8.18751 8.27375 8.18751 8.18748V5.18746C8.18751 5.05485 8.24018 4.92767 8.33398 4.8339C8.42771 4.74014 8.55491 4.68746 8.68751 4.68746C8.82011 4.68746 8.94731 4.74014 9.04105 4.8339C9.13485 4.92767 9.18751 5.05485 9.18751 5.18746ZM14.6875 3.68746C14.5549 3.68746 14.4277 3.74014 14.334 3.8339C14.2402 3.92767 14.1875 4.05485 14.1875 4.18746V5.31246C13.7906 4.85246 13.3856 4.40933 12.93 3.94809C12.0962 3.11415 11.035 2.54443 9.87925 2.31012C8.72351 2.0758 7.52431 2.18728 6.4315 2.63062C5.33871 3.07397 4.40081 3.82952 3.73497 4.80286C3.06913 5.7762 2.70489 6.92421 2.68777 8.10335C2.67064 9.28255 3.00139 10.4406 3.63867 11.4329C4.27596 12.4251 5.19153 13.2076 6.27098 13.6825C7.35043 14.1574 8.54591 14.3037 9.70798 14.103C10.8701 13.9023 11.9473 13.3637 12.805 12.5543C12.8528 12.5092 12.8912 12.4551 12.918 12.3951C12.9449 12.3351 12.9597 12.2704 12.9615 12.2047C12.9634 12.139 12.9523 12.0736 12.9288 12.0122C12.9054 11.9508 12.8702 11.8946 12.825 11.8468C12.7798 11.7991 12.7258 11.7607 12.6658 11.7338C12.6058 11.7069 12.5411 11.6921 12.4754 11.6903C12.4097 11.6885 12.3443 11.6995 12.2828 11.7229C12.2214 11.7464 12.1652 11.7817 12.1175 11.8268C11.4025 12.5006 10.5049 12.9489 9.53671 13.1155C8.56851 13.2823 7.57265 13.1601 6.67352 12.7641C5.77437 12.3683 5.01177 11.7163 4.48095 10.8896C3.95014 10.0629 3.67463 9.09815 3.68883 8.11581C3.70303 7.13348 4.00631 6.17707 4.56081 5.36606C5.11529 4.55506 5.89642 3.92538 6.80664 3.55565C7.71685 3.18592 8.71585 3.09254 9.67878 3.28716C10.6418 3.48178 11.526 3.95578 12.2212 4.64996C12.73 5.16496 13.1756 5.66121 13.625 6.18746H12.1875C12.0549 6.18746 11.9277 6.24014 11.834 6.3339C11.7402 6.42767 11.6875 6.55485 11.6875 6.68746C11.6875 6.82007 11.7402 6.94721 11.834 7.04101C11.9277 7.13481 12.0549 7.18748 12.1875 7.18748H14.6875C14.8201 7.18748 14.9473 7.13481 15.041 7.04101C15.1348 6.94721 15.1875 6.82007 15.1875 6.68746V4.18746C15.1875 4.05485 15.1348 3.92767 15.041 3.8339C14.9473 3.74014 14.8201 3.68746 14.6875 3.68746Z" fill="#495060"/>
</svg>
