<svg width="17" height="17" viewBox="0 0 17 17" fill="none" xmlns="http://www.w3.org/2000/svg">
<path opacity="0.2" d="M15.2344 6.96875V12.9688C15.2344 13.1014 15.1817 13.2286 15.0879 13.3223C14.9942 13.4161 14.867 13.4688 14.7344 13.4688H2.73438C2.60177 13.4688 2.47459 13.4161 2.38082 13.3223C2.28706 13.2286 2.23438 13.1014 2.23438 12.9688V6.96875H15.2344Z" fill="white" fill-opacity="0.85"/>
<path d="M15 4H3C2.73479 4 2.48043 4.10536 2.29289 4.29289C2.10536 4.48043 2 4.73479 2 5V13C2 13.2652 2.10536 13.5196 2.29289 13.7071C2.48043 13.8947 2.73479 14 3 14H15C15.2652 14 15.5196 13.8947 15.7071 13.7071C15.8947 13.5196 16 13.2652 16 13V5C16 4.73479 15.8947 4.48043 15.7071 4.29289C15.5196 4.10536 15.2652 4 15 4ZM15 5V6.5H3V5H15ZM15 13H3V7.5H15V13ZM14 11.5C14 11.6326 13.9473 11.7598 13.8535 11.8535C13.7598 11.9473 13.6326 12 13.5 12H11.5C11.3674 12 11.2402 11.9473 11.1465 11.8535C11.0527 11.7598 11 11.6326 11 11.5C11 11.3674 11.0527 11.2402 11.1465 11.1465C11.2402 11.0527 11.3674 11 11.5 11H13.5C13.6326 11 13.7598 11.0527 13.8535 11.1465C13.9473 11.2402 14 11.3674 14 11.5ZM10 11.5C10 11.6326 9.94733 11.7598 9.85353 11.8535C9.7598 11.9473 9.6326 12 9.5 12H8.5C8.3674 12 8.2402 11.9473 8.14647 11.8535C8.05267 11.7598 8 11.6326 8 11.5C8 11.3674 8.05267 11.2402 8.14647 11.1465C8.2402 11.0527 8.3674 11 8.5 11H9.5C9.6326 11 9.7598 11.0527 9.85353 11.1465C9.94733 11.2402 10 11.3674 10 11.5Z" fill="white" fill-opacity="0.85"/>
</svg>
