<svg width="17" height="17" viewBox="0 0 17 17" fill="none" xmlns="http://www.w3.org/2000/svg">
<path opacity="0.2" d="M14.7344 6.1875V12.1875C14.7344 12.3201 14.6817 12.4473 14.5879 12.541C14.4942 12.6348 14.367 12.6875 14.2344 12.6875H2.23438C2.10177 12.6875 1.97459 12.6348 1.88082 12.541C1.78706 12.4473 1.73438 12.3201 1.73438 12.1875V6.1875H14.7344Z" fill="#495060"/>
<path d="M14.2344 3.1875H2.23438C1.96916 3.1875 1.7148 3.29286 1.52727 3.48039C1.33974 3.66793 1.23438 3.92229 1.23438 4.1875V12.1875C1.23438 12.4527 1.33974 12.7071 1.52727 12.8946C1.7148 13.0822 1.96916 13.1875 2.23438 13.1875H14.2344C14.4996 13.1875 14.754 13.0822 14.9415 12.8946C15.129 12.7071 15.2344 12.4527 15.2344 12.1875V4.1875C15.2344 3.92229 15.129 3.66793 14.9415 3.48039C14.754 3.29286 14.4996 3.1875 14.2344 3.1875ZM14.2344 4.1875V5.6875H2.23438V4.1875H14.2344ZM14.2344 12.1875H2.23438V6.6875H14.2344V12.1875ZM13.2344 10.6875C13.2344 10.8201 13.1817 10.9473 13.0879 11.041C12.9942 11.1348 12.867 11.1875 12.7344 11.1875H10.7344C10.6018 11.1875 10.4746 11.1348 10.3808 11.041C10.287 10.9473 10.2344 10.8201 10.2344 10.6875C10.2344 10.5549 10.287 10.4277 10.3808 10.334C10.4746 10.2402 10.6018 10.1875 10.7344 10.1875H12.7344C12.867 10.1875 12.9942 10.2402 13.0879 10.334C13.1817 10.4277 13.2344 10.5549 13.2344 10.6875ZM9.23438 10.6875C9.23438 10.8201 9.18171 10.9473 9.08791 11.041C8.99418 11.1348 8.86698 11.1875 8.73438 11.1875H7.73438C7.60177 11.1875 7.47458 11.1348 7.38084 11.041C7.28704 10.9473 7.23438 10.8201 7.23438 10.6875C7.23438 10.5549 7.28704 10.4277 7.38084 10.334C7.47458 10.2402 7.60177 10.1875 7.73438 10.1875H8.73438C8.86698 10.1875 8.99418 10.2402 9.08791 10.334C9.18171 10.4277 9.23438 10.5549 9.23438 10.6875Z" fill="#495060"/>
</svg>
