<svg width="41" height="41" viewBox="0 0 41 41" fill="none" xmlns="http://www.w3.org/2000/svg">
<path opacity="0.2" d="M23.5938 13.9297H16.8438C15.9486 13.9297 15.0902 14.2853 14.4573 14.9182C13.8243 15.5511 13.4688 16.4096 13.4688 17.3047V24.0547C13.4688 24.9498 13.8243 25.8083 14.4573 26.4412C15.0902 27.0741 15.9486 27.4297 16.8438 27.4297H23.5938C24.4889 27.4297 25.3473 27.0741 25.9802 26.4412C26.6132 25.8083 26.9688 24.9498 26.9688 24.0547V17.3047C26.9688 16.4096 26.6132 15.5511 25.9802 14.9182C25.3473 14.2853 24.4889 13.9297 23.5938 13.9297ZM20.2188 23.4922C19.6625 23.4922 19.1187 23.3273 18.6562 23.0182C18.1937 22.7092 17.8332 22.2699 17.6203 21.756C17.4075 21.242 17.3518 20.6765 17.4603 20.131C17.5688 19.5854 17.8367 19.0843 18.23 18.6909C18.6233 18.2976 19.1245 18.0297 19.6701 17.9212C20.2156 17.8127 20.7811 17.8684 21.2951 18.0813C21.809 18.2941 22.2483 18.6546 22.5573 19.1171C22.8663 19.5797 23.0312 20.1234 23.0312 20.6797C23.0312 21.4256 22.7349 22.141 22.2075 22.6685C21.68 23.1959 20.9647 23.4922 20.2188 23.4922Z" fill="#6B7589"/>
<path d="M23.5938 13.3672H16.8438C15.7998 13.3683 14.7989 13.7835 14.0607 14.5217C13.3226 15.2599 12.9074 16.2607 12.9062 17.3047V24.0547C12.9074 25.0986 13.3226 26.0995 14.0607 26.8377C14.7989 27.5759 15.7998 27.9911 16.8438 27.9922H23.5938C24.6377 27.9911 25.6385 27.5759 26.3768 26.8377C27.1149 26.0995 27.5301 25.0986 27.5312 24.0547V17.3047C27.5301 16.2607 27.1149 15.2599 26.3768 14.5217C25.6385 13.7835 24.6377 13.3683 23.5938 13.3672ZM26.4062 24.0547C26.4062 24.8006 26.1099 25.516 25.5825 26.0435C25.055 26.5709 24.3397 26.8672 23.5938 26.8672H16.8438C16.0978 26.8672 15.3825 26.5709 14.855 26.0435C14.3276 25.516 14.0312 24.8006 14.0312 24.0547V17.3047C14.0312 16.5588 14.3276 15.8434 14.855 15.316C15.3825 14.7885 16.0978 14.4922 16.8438 14.4922H23.5938C24.3397 14.4922 25.055 14.7885 25.5825 15.316C26.1099 15.8434 26.4062 16.5588 26.4062 17.3047V24.0547ZM20.2188 17.3047C19.5512 17.3047 18.8988 17.5026 18.3437 17.8735C17.7887 18.2443 17.3561 18.7714 17.1007 19.3881C16.8452 20.0048 16.7784 20.6834 16.9086 21.3381C17.0388 21.9928 17.3603 22.5941 17.8323 23.0662C18.3043 23.5382 18.9057 23.8596 19.5603 23.9898C20.215 24.1201 20.8936 24.0533 21.5103 23.7978C22.127 23.5424 22.6541 23.1098 23.025 22.5548C23.3958 21.9997 23.5938 21.3472 23.5938 20.6797C23.5928 19.7849 23.237 18.927 22.6042 18.2942C21.9715 17.6615 21.1136 17.3056 20.2188 17.3047ZM20.2188 22.9297C19.7738 22.9297 19.3387 22.7978 18.9687 22.5505C18.5987 22.3033 18.3103 21.9518 18.14 21.5407C17.9697 21.1296 17.9252 20.6772 18.012 20.2407C18.0988 19.8043 18.3131 19.4033 18.6278 19.0887C18.9424 18.774 19.3433 18.5597 19.7798 18.4729C20.2163 18.3861 20.6687 18.4307 21.0798 18.601C21.4909 18.7713 21.8424 19.0596 22.0896 19.4297C22.3368 19.7996 22.4688 20.2347 22.4688 20.6797C22.4688 21.2764 22.2317 21.8487 21.8097 22.2707C21.3878 22.6926 20.8155 22.9297 20.2188 22.9297ZM24.7188 17.0234C24.7188 17.1903 24.6692 17.3534 24.5765 17.4922C24.4839 17.631 24.3521 17.7391 24.1979 17.803C24.0437 17.8668 23.8741 17.8835 23.7104 17.851C23.5467 17.8184 23.3963 17.7381 23.2784 17.6201C23.1604 17.5021 23.08 17.3517 23.0475 17.188C23.0149 17.0244 23.0316 16.8547 23.0954 16.7005C23.1594 16.5464 23.2675 16.4146 23.4062 16.3219C23.545 16.2292 23.7081 16.1797 23.875 16.1797C24.0988 16.1797 24.3134 16.2686 24.4716 16.4268C24.6299 16.585 24.7188 16.7997 24.7188 17.0234Z" fill="#6B7589"/>
</svg>
