<svg width="40" height="40" viewBox="0 0 40 40" fill="none" xmlns="http://www.w3.org/2000/svg">
<path opacity="0.2" d="M26.75 13.8125V26.1875C26.75 26.3367 26.6908 26.4798 26.5852 26.5852C26.4798 26.6908 26.3367 26.75 26.1875 26.75H13.8125C13.6633 26.75 13.5202 26.6908 13.4148 26.5852C13.3093 26.4798 13.25 26.3367 13.25 26.1875V13.8125C13.25 13.6633 13.3093 13.5202 13.4148 13.4148C13.5202 13.3093 13.6633 13.25 13.8125 13.25H26.1875C26.3367 13.25 26.4798 13.3093 26.5852 13.4148C26.6908 13.5202 26.75 13.6633 26.75 13.8125Z" fill="#6B7589"/>
<path d="M26.1875 12.6875H13.8125C13.5141 12.6875 13.228 12.806 13.017 13.017C12.806 13.228 12.6875 13.5141 12.6875 13.8125V26.1875C12.6875 26.4858 12.806 26.772 13.017 26.983C13.228 27.194 13.5141 27.3125 13.8125 27.3125H26.1875C26.4858 27.3125 26.772 27.194 26.983 26.983C27.194 26.772 27.3125 26.4858 27.3125 26.1875V13.8125C27.3125 13.5141 27.194 13.228 26.983 13.017C26.772 12.806 26.4858 12.6875 26.1875 12.6875ZM26.1875 26.1875H13.8125V13.8125H26.1875V26.1875ZM17.75 18.875V23.375C17.75 23.5242 17.6907 23.6673 17.5852 23.7727C17.4798 23.8783 17.3367 23.9375 17.1875 23.9375C17.0383 23.9375 16.8952 23.8783 16.7898 23.7727C16.6843 23.6673 16.625 23.5242 16.625 23.375V18.875C16.625 18.7258 16.6843 18.5827 16.7898 18.4773C16.8952 18.3718 17.0383 18.3125 17.1875 18.3125C17.3367 18.3125 17.4798 18.3718 17.5852 18.4773C17.6907 18.5827 17.75 18.7258 17.75 18.875ZM23.9375 20.8438V23.375C23.9375 23.5242 23.8783 23.6673 23.7727 23.7727C23.6673 23.8783 23.5242 23.9375 23.375 23.9375C23.2258 23.9375 23.0827 23.8783 22.9773 23.7727C22.8717 23.6673 22.8125 23.5242 22.8125 23.375V20.8438C22.8125 20.4708 22.6644 20.1131 22.4006 19.8494C22.1369 19.5856 21.7792 19.4375 21.4062 19.4375C21.0333 19.4375 20.6756 19.5856 20.4119 19.8494C20.1481 20.1131 20 20.4708 20 20.8438V23.375C20 23.5242 19.9408 23.6673 19.8352 23.7727C19.7298 23.8783 19.5867 23.9375 19.4375 23.9375C19.2883 23.9375 19.1452 23.8783 19.0398 23.7727C18.9342 23.6673 18.875 23.5242 18.875 23.375V18.875C18.8757 18.7372 18.927 18.6045 19.019 18.5019C19.1111 18.3995 19.2376 18.3343 19.3745 18.3189C19.5114 18.3035 19.6492 18.3388 19.7618 18.4182C19.8744 18.4977 19.9539 18.6157 19.9852 18.7498C20.3658 18.4917 20.8094 18.3421 21.2685 18.3171C21.7277 18.2921 22.185 18.3926 22.5912 18.6078C22.9976 18.8231 23.3376 19.145 23.5748 19.5389C23.8119 19.9329 23.9374 20.3839 23.9375 20.8438ZM18.0312 16.9062C18.0312 17.0731 17.9818 17.2363 17.8891 17.375C17.7963 17.5138 17.6646 17.6219 17.5104 17.6858C17.3562 17.7496 17.1866 17.7663 17.0229 17.7338C16.8592 17.7012 16.7089 17.6209 16.5909 17.5029C16.4729 17.3849 16.3925 17.2345 16.36 17.0709C16.3274 16.9072 16.3441 16.7375 16.408 16.5834C16.4718 16.4292 16.58 16.2974 16.7187 16.2047C16.8575 16.112 17.0206 16.0625 17.1875 16.0625C17.4113 16.0625 17.6259 16.1514 17.7841 16.3096C17.9424 16.4679 18.0312 16.6825 18.0312 16.9062Z" fill="#6B7589"/>
</svg>
