<svg width="111" height="24" viewBox="0 0 111 24" fill="none" xmlns="http://www.w3.org/2000/svg">
<path fill-rule="evenodd" clip-rule="evenodd" d="M64.7394 19.6262V10.983V0.959991H68.6748V5.22954C68.6748 5.57666 68.6574 5.94114 68.6226 6.32298C68.6052 6.70482 68.562 7.0953 68.4924 7.49448C68.4402 7.87632 68.379 8.2668 68.31 8.66604C68.2578 9.06522 68.1882 9.4557 68.1012 9.83754H68.7006C68.9436 8.96976 69.2478 8.22342 69.6126 7.59864C69.9948 6.95646 70.4814 6.46182 71.0718 6.11472C71.6628 5.75022 72.4098 5.56799 73.3134 5.56799C74.9286 5.56799 76.1364 6.13206 76.9356 7.26018C77.7348 8.37096 78.1344 10.0979 78.1344 12.4409V19.6262H74.199V13.0657C74.199 11.6252 73.9908 10.5578 73.5738 9.86358C73.1568 9.15198 72.5226 8.79618 71.6712 8.79618C70.9938 8.79618 70.4382 9.00444 70.0038 9.42102C69.5694 9.83754 69.2394 10.3843 69.0132 11.0611C68.7876 11.738 68.6658 12.5104 68.6484 13.3781V19.6262H64.7394ZM104.445 19.9907C103.576 19.9907 102.82 19.8259 102.178 19.4961C101.535 19.149 101.005 18.6544 100.588 18.0122C100.189 17.3527 99.9192 16.5543 99.78 15.617H99.2592L99.2328 19.6262H96.0018V12.8835V0.959991H99.9108V5.46385C99.9108 5.88039 99.8844 6.32298 99.8322 6.79158C99.78 7.26018 99.702 7.75482 99.5976 8.2755C99.5112 8.77884 99.4152 9.29952 99.3114 9.83754H99.8844C100.128 8.93502 100.441 8.1714 100.823 7.54656C101.222 6.92172 101.726 6.44448 102.334 6.11472C102.942 5.78493 103.654 5.62005 104.471 5.62005C105.617 5.62005 106.608 5.9151 107.441 6.5052C108.275 7.0953 108.927 7.9284 109.396 9.00444C109.865 10.0805 110.1 11.3648 110.1 12.8575C110.1 14.3153 109.865 15.5737 109.396 16.6324C108.944 17.6911 108.293 18.5155 107.441 19.1056C106.608 19.6957 105.609 19.9907 104.445 19.9907ZM103.012 16.7886C103.619 16.7886 104.141 16.6237 104.575 16.294C105.027 15.9642 105.374 15.4955 105.617 14.8881C105.861 14.2807 105.982 13.5691 105.982 12.7534C105.982 11.9376 105.861 11.2347 105.617 10.6446C105.392 10.0545 105.062 9.59454 104.627 9.26478C104.21 8.91768 103.706 8.7441 103.116 8.7441C102.699 8.7441 102.325 8.82222 101.995 8.9784C101.665 9.13464 101.37 9.3429 101.109 9.60324C100.849 9.86358 100.631 10.1586 100.458 10.4884C100.284 10.8008 100.145 11.1392 100.041 11.5037C99.954 11.8508 99.9108 12.1892 99.9108 12.519V13.0136C99.9108 13.4129 99.9714 13.8381 100.093 14.2893C100.214 14.7232 100.397 15.1311 100.64 15.5129C100.901 15.8947 101.222 16.2071 101.605 16.4501C102.004 16.6757 102.473 16.7886 103.012 16.7886ZM51.0882 19.5482C51.6786 19.8432 52.356 19.9907 53.121 19.9907C53.937 19.9907 54.6666 19.8345 55.3098 19.5221C55.9698 19.2097 56.526 18.7845 56.9772 18.2465C57.4464 17.6911 57.8028 17.0836 58.0458 16.4241H58.5408C58.5582 17.0142 58.602 17.587 58.6716 18.1423C58.7406 18.6977 58.8102 19.1924 58.8798 19.6262H62.3454C62.2764 19.0015 62.2152 18.3766 62.163 17.7518C62.1288 17.1097 62.094 16.4762 62.0592 15.8513C62.0418 15.2092 62.0328 14.5844 62.0328 13.9769V11.738C62.0328 10.3148 61.8246 9.15198 61.4076 8.24946C60.9906 7.3296 60.348 6.65274 59.4792 6.21882C58.6278 5.78492 57.525 5.56797 56.1696 5.56797C55.3356 5.56797 54.5538 5.65475 53.8242 5.82831C53.112 5.98451 52.4694 6.24486 51.8958 6.6093C51.3402 6.95646 50.862 7.39902 50.4624 7.93704C50.0628 8.45772 49.7592 9.08256 49.5504 9.8115L53.0166 10.8529C53.1552 10.3495 53.364 9.9243 53.6418 9.5772C53.937 9.23004 54.2934 8.96976 54.7104 8.79618C55.1274 8.6226 55.5792 8.53584 56.0652 8.53584C56.8122 8.53584 57.351 8.70942 57.681 9.05652C58.011 9.38628 58.176 9.77676 58.176 10.228C58.176 10.5752 58.0896 10.8355 57.9156 11.009C57.7416 11.1826 57.4812 11.3128 57.1338 11.3996C56.7864 11.4863 56.3436 11.5731 55.8048 11.6599C54.7626 11.8161 53.8332 11.9983 53.0166 12.2066C52.2 12.3975 51.5052 12.6492 50.9316 12.9616C50.3586 13.274 49.9242 13.6819 49.629 14.1852C49.3332 14.6885 49.1856 15.322 49.1856 16.0856C49.1856 16.9361 49.3506 17.6477 49.6806 18.2204C50.0286 18.7932 50.4972 19.2358 51.0882 19.5482ZM55.8048 17.0229C55.4748 17.127 55.1532 17.1791 54.8406 17.1791C54.2844 17.1791 53.8332 17.0315 53.4858 16.7365C53.1552 16.4241 52.9902 16.0075 52.9902 15.4869C52.9902 15.0877 53.0862 14.7753 53.277 14.5496C53.4684 14.324 53.7288 14.1505 54.0588 14.029C54.3888 13.8901 54.7536 13.786 55.1532 13.7166C55.5702 13.6298 55.9962 13.5517 56.43 13.4822C56.8644 13.4128 57.2814 13.3174 57.681 13.1959C57.8688 13.1333 58.0464 13.0619 58.2132 12.9817L58.2546 14.6538C58.098 15.053 57.8898 15.4088 57.6288 15.7212C57.3684 16.0336 57.0816 16.3026 56.769 16.5282C56.4564 16.7365 56.1348 16.9014 55.8048 17.0229ZM33.4764 23.9999V12.9095V5.93244H36.708L36.7338 9.75942L37.203 9.8115C37.3596 8.8743 37.6374 8.09328 38.037 7.46844C38.4366 6.82626 38.949 6.34896 39.5748 6.0366C40.2 5.72417 40.9212 5.56797 41.7372 5.56797C42.9534 5.56797 43.9962 5.86302 44.8644 6.45312C45.7332 7.04322 46.4022 7.88496 46.8714 8.9784C47.34 10.0718 47.5746 11.3648 47.5746 12.8575C47.5746 14.2286 47.3664 15.4522 46.9494 16.5282C46.5324 17.587 45.9072 18.4287 45.0732 19.0535C44.2566 19.6783 43.2228 19.9907 41.9718 19.9907C41.121 19.9907 40.3908 19.8345 39.783 19.5221C39.1926 19.1924 38.697 18.7324 38.2974 18.1423C37.8978 17.5349 37.5678 16.8059 37.3074 15.9555H36.786C36.8904 16.4414 36.9858 16.9274 37.0728 17.4134C37.1772 17.882 37.2552 18.3506 37.3074 18.8192C37.3596 19.2704 37.3854 19.7044 37.3854 20.1209V23.9999H33.4764ZM40.5906 16.8667C41.1816 16.8667 41.6856 16.7018 42.102 16.372C42.5364 16.0423 42.867 15.5737 43.0926 14.9662C43.3356 14.3587 43.4574 13.6645 43.4574 12.8835C43.4574 12.0331 43.3356 11.3128 43.0926 10.7227C42.8496 10.1152 42.5016 9.64662 42.0504 9.31686C41.616 8.96976 41.0946 8.79618 40.4868 8.79618C39.948 8.79618 39.4788 8.91768 39.0792 9.16062C38.697 9.40362 38.376 9.71604 38.115 10.0979C37.872 10.4797 37.6896 10.8962 37.5678 11.3475C37.4466 11.7814 37.3854 12.1979 37.3854 12.5971V13.1178C37.3854 13.4649 37.4292 13.812 37.5156 14.1592C37.62 14.5063 37.7592 14.8447 37.9326 15.1745C38.1066 15.4869 38.3238 15.7732 38.5842 16.0336C38.8446 16.2939 39.1404 16.5022 39.4704 16.6584C39.8004 16.7972 40.1742 16.8667 40.5906 16.8667ZM19.1567 18.3506C19.9732 19.444 21.1807 19.9907 22.7789 19.9907C23.6476 19.9907 24.3772 19.8346 24.9679 19.5221C25.7644 19.1009 27.0856 17.7707 27.4175 15.8627H27.9126L27.9386 19.6262H31.092V14.055V5.93245H27.1829V12.0244C27.1656 12.7013 27.0874 13.3261 26.9484 13.8988C26.8268 14.4716 26.6444 14.9749 26.4012 15.4088C26.158 15.8427 25.8539 16.1811 25.4891 16.4241C25.1416 16.6497 24.7334 16.7626 24.2643 16.7626C23.4478 16.7626 22.8397 16.4414 22.4402 15.7993C22.058 15.1571 21.8669 14.1765 21.8669 12.8575V5.93245H17.9319V13.3781C17.9319 15.5997 18.3401 17.2572 19.1567 18.3506ZM85.3248 19.9907C83.7264 19.9907 82.5192 19.444 81.7026 18.3506C80.886 17.2572 80.4774 15.5997 80.4774 13.3781V5.93245H84.4128V12.8575C84.4128 14.1765 84.6036 15.1571 84.9858 15.7993C85.3854 16.4414 85.9938 16.7626 86.8098 16.7626C87.279 16.7626 87.6876 16.6497 88.035 16.4241C88.3998 16.1811 88.7034 15.8427 88.947 15.4088C89.19 14.9749 89.3724 14.4716 89.4942 13.8988C89.6334 13.3261 89.7114 12.7013 89.7288 12.0244V5.93245H93.6378V14.055V19.6262H90.4842L90.4584 15.8627H89.9634C89.6316 17.7707 88.3098 19.1009 87.5136 19.5221C86.9232 19.8346 86.193 19.9907 85.3248 19.9907ZM5.44242 19.6523C6.34578 19.8779 7.35343 19.9907 8.46528 19.9907C10.1157 19.9907 11.4968 19.7738 12.6087 19.3399C13.7206 18.906 14.5544 18.2986 15.1104 17.5175C15.6663 16.7365 15.9443 15.8254 15.9443 14.784C15.9443 13.8121 15.7358 13.005 15.3188 12.3628C14.9019 11.7206 14.3546 11.2174 13.6771 10.8529C12.9996 10.471 12.2699 10.1673 11.4881 9.9417C10.7064 9.6987 9.94194 9.49908 9.19494 9.3429C8.41314 9.16932 7.70088 8.9871 7.0581 8.79618C6.43266 8.60526 5.92884 8.37096 5.54664 8.09328C5.16444 7.7982 4.97334 7.42506 4.97334 6.9738C4.97334 6.60936 5.09496 6.28824 5.33814 6.01056C5.59878 5.73287 5.96358 5.50724 6.43266 5.33368C6.91908 5.16012 7.50108 5.07335 8.1786 5.07335C8.7519 5.07335 9.25572 5.14277 9.69006 5.28162C10.1417 5.42046 10.5239 5.62006 10.8367 5.8804C11.1494 6.14076 11.3839 6.47052 11.5403 6.8697C11.714 7.26888 11.8009 7.72878 11.8009 8.24946H15.5544C15.4343 4.75068 13.0256 3.1642 11.9833 2.7303C10.9409 2.2964 9.68136 2.07945 8.2047 2.07945C6.72798 2.07945 5.46846 2.30508 4.42608 2.75633C3.4011 3.19023 2.6193 3.79769 2.08074 4.57871C1.54218 5.34236 1.2729 6.25356 1.2729 7.31226C1.2729 8.23212 1.4727 9.00444 1.8723 9.62928C2.27184 10.2367 2.8017 10.7314 3.46188 11.1132C4.13946 11.495 4.88646 11.8075 5.703 12.0504C6.53688 12.2934 7.37947 12.5104 8.23075 12.7013C9.01255 12.8748 9.69006 13.0571 10.2634 13.248C10.8541 13.4389 11.3144 13.6732 11.6445 13.9509C11.992 14.2112 12.1657 14.5497 12.1657 14.9662C12.1657 15.3307 12.0354 15.6691 11.7748 15.9815C11.5142 16.2766 11.1233 16.5196 10.6021 16.7105C10.081 16.9014 9.43818 16.9969 8.67372 16.9969C7.87458 16.9969 7.15362 16.8754 6.51084 16.6324C5.86806 16.3894 5.36424 16.0162 4.99938 15.5129C4.63458 15.0096 4.43478 14.3761 4.40004 13.6124H0.659943C0.659943 14.8907 1.24686 16.3894 1.61166 17.0489C1.97652 17.7085 2.48034 18.2552 3.12312 18.689C3.7659 19.123 4.539 19.444 5.44242 19.6523Z" fill="#111827"/>
</svg>
