<svg width="25" height="24" viewBox="0 0 25 24" fill="none" xmlns="http://www.w3.org/2000/svg">
<path opacity="0.3" d="M8.8765 10.7769L10.826 5.3184C10.984 4.87596 11.6097 4.87596 11.7677 5.3184L13.7172 10.7769C13.7676 10.9181 13.8787 11.0292 14.0199 11.0796L19.4784 13.0291C19.9209 13.1871 19.9209 13.8128 19.4784 13.9708L14.0199 15.9203C13.8787 15.9707 13.7676 16.0818 13.7172 16.223L11.7677 21.6815C11.6097 22.124 10.984 22.124 10.826 21.6815L8.8765 16.223C8.82608 16.0818 8.71498 15.9707 8.5738 15.9203L3.11528 13.9708C2.67284 13.8128 2.67284 13.1871 3.11528 13.0291L8.5738 11.0796C8.71498 11.0292 8.82608 10.9181 8.8765 10.7769Z" fill="white"/>
<path fill-rule="evenodd" clip-rule="evenodd" d="M17.2969 0.75C17.7111 0.75 18.0469 1.08579 18.0469 1.5V3.25H19.7969C20.2111 3.25 20.5469 3.58579 20.5469 4C20.5469 4.41421 20.2111 4.75 19.7969 4.75H18.0469V6.5C18.0469 6.91421 17.7111 7.25 17.2969 7.25C16.8827 7.25 16.5469 6.91421 16.5469 6.5V4.75H14.7969C14.3827 4.75 14.0469 4.41421 14.0469 4C14.0469 3.58579 14.3827 3.25 14.7969 3.25H16.5469V1.5C16.5469 1.08579 16.8827 0.75 17.2969 0.75ZM22.0469 6.5C22.0469 6.08579 21.7111 5.75 21.2969 5.75C20.8827 5.75 20.5469 6.08579 20.5469 6.5V7.25H19.7969C19.3827 7.25 19.0469 7.58579 19.0469 8C19.0469 8.41421 19.3827 8.75 19.7969 8.75H20.5469V9.5C20.5469 9.91421 20.8827 10.25 21.2969 10.25C21.7111 10.25 22.0469 9.91421 22.0469 9.5V8.75H22.7969C23.2111 8.75 23.5469 8.41421 23.5469 8C23.5469 7.58579 23.2111 7.25 22.7969 7.25H22.0469V6.5ZM9.58281 11.0292L11.2969 6.22988L13.0109 11.0292C13.137 11.3821 13.4147 11.6599 13.7677 11.7859L18.567 13.5L13.7677 15.214C13.4147 15.3401 13.137 15.6178 13.0109 15.9708L11.2969 20.7701L9.58281 15.9708C9.45676 15.6178 9.179 15.3401 8.82605 15.214L4.02676 13.5L8.82605 11.7859C9.179 11.6599 9.45676 11.3821 9.58281 11.0292ZM12.474 5.06615C12.079 3.96005 10.5147 3.96004 10.1197 5.06615L8.21003 10.4131L2.86303 12.3228C1.75693 12.7178 1.75692 14.2821 2.86303 14.6771L8.21003 16.5868L10.1197 21.9338C10.5147 23.0399 12.079 23.0399 12.474 21.9338L14.3837 16.5868L19.7307 14.6771C20.8368 14.2821 20.8368 12.7178 19.7307 12.3228L14.3837 10.4131L12.474 5.06615Z" fill="white"/>
</svg>
