<svg width="25" height="25" viewBox="0 0 25 25" fill="none" xmlns="http://www.w3.org/2000/svg">
<path opacity="0.3" d="M8.3765 11.5579L10.326 6.09941C10.484 5.65697 11.1097 5.65697 11.2677 6.09941L13.2172 11.5579C13.2676 11.6991 13.3787 11.8102 13.5199 11.8606L18.9784 13.8101C19.4209 13.9681 19.4209 14.5938 18.9784 14.7518L13.5199 16.7013C13.3787 16.7517 13.2676 16.8628 13.2172 17.004L11.2677 22.4625C11.1097 22.905 10.484 22.905 10.326 22.4625L8.3765 17.004C8.32608 16.8628 8.21498 16.7517 8.0738 16.7013L2.61528 14.7518C2.17284 14.5938 2.17284 13.9681 2.61528 13.8101L8.0738 11.8606C8.21498 11.8102 8.32608 11.6991 8.3765 11.5579Z" fill="#111827"/>
<path fill-rule="evenodd" clip-rule="evenodd" d="M16.7969 1.53125C17.2111 1.53125 17.5469 1.86704 17.5469 2.28125V4.03125H19.2969C19.7111 4.03125 20.0469 4.36704 20.0469 4.78125C20.0469 5.19546 19.7111 5.53125 19.2969 5.53125H17.5469V7.28125C17.5469 7.69546 17.2111 8.03125 16.7969 8.03125C16.3827 8.03125 16.0469 7.69546 16.0469 7.28125V5.53125H14.2969C13.8827 5.53125 13.5469 5.19546 13.5469 4.78125C13.5469 4.36704 13.8827 4.03125 14.2969 4.03125H16.0469V2.28125C16.0469 1.86704 16.3827 1.53125 16.7969 1.53125ZM21.5469 7.28125C21.5469 6.86704 21.2111 6.53125 20.7969 6.53125C20.3827 6.53125 20.0469 6.86704 20.0469 7.28125V8.03125H19.2969C18.8827 8.03125 18.5469 8.36704 18.5469 8.78125C18.5469 9.19546 18.8827 9.53125 19.2969 9.53125H20.0469V10.2812C20.0469 10.6955 20.3827 11.0312 20.7969 11.0312C21.2111 11.0312 21.5469 10.6955 21.5469 10.2812V9.53125H22.2969C22.7111 9.53125 23.0469 9.19546 23.0469 8.78125C23.0469 8.36704 22.7111 8.03125 22.2969 8.03125H21.5469V7.28125ZM9.08281 11.8104L10.7969 7.01113L12.5109 11.8104C12.637 12.1633 12.9147 12.4411 13.2677 12.5672L18.067 14.2812L13.2677 15.9952C12.9147 16.1213 12.637 16.3991 12.5109 16.7521L10.7969 21.5513L9.08281 16.7521C8.95676 16.3991 8.679 16.1213 8.32605 15.9952L3.52676 14.2812L8.32605 12.5672C8.679 12.4411 8.95676 12.1633 9.08281 11.8104ZM11.974 5.8474C11.579 4.7413 10.0147 4.74129 9.61967 5.8474L7.71003 11.1944L2.36303 13.104C1.25693 13.4991 1.25692 15.0633 2.36303 15.4584L7.71003 17.368L9.61967 22.715C10.0147 23.8211 11.579 23.8211 11.974 22.715L13.8837 17.368L19.2307 15.4584C20.3368 15.0633 20.3368 13.4991 19.2307 13.104L13.8837 11.1944L11.974 5.8474Z" fill="#111827"/>
</svg>
